{"glyphs":{"0":{"ha":807,"x_min":0,"x_max":669,"o":"m 335 972 q 564 842 468 972 q 578 822 572 831 q 669 486 669 681 q 578 150 668 290 q 360 1 489 15 q 335 0 347 0 q 106 131 201 0 q 92 150 97 142 q 0 486 0 292 q 92 822 1 682 q 310 971 181 957 q 335 972 322 972 m 335 875 q 174 769 242 874 q 97 486 97 651 q 174 203 97 319 q 335 97 243 99 q 496 203 428 99 q 572 486 572 321 q 496 769 571 653 q 335 875 426 874 z "},"1":{"ha":424,"x_min":0,"x_max":258,"o":"m 161 972 l 258 972 l 258 0 l 161 0 l 161 736 q 32 656 104 681 l 0 747 q 142 879 100 782 q 161 972 160 925 z "},"2":{"ha":751,"x_min":0,"x_max":628,"o":"m 338 974 q 547 881 465 974 q 593 807 576 846 q 607 758 601 785 q 582 560 626 663 q 432 343 539 465 l 215 97 l 567 97 l 567 0 l 0 0 l 358 407 q 493 599 457 519 q 508 753 528 681 q 407 864 486 832 q 338 876 374 876 q 193 804 246 876 q 168 753 175 779 l 74 779 q 213 944 106 892 q 338 974 272 974 z "},"3":{"ha":735,"x_min":0,"x_max":608,"o":"m 296 972 q 335 969 317 972 q 499 856 443 950 q 529 718 535 790 q 447 561 519 624 q 589 371 558 496 q 596 328 593 349 q 513 93 607 192 q 346 4 443 22 q 289 0 317 0 q 65 101 154 3 q 0 224 18 156 l 94 249 q 208 115 119 156 q 329 100 267 90 q 475 206 428 118 q 499 319 504 258 q 406 472 490 418 q 293 506 354 504 l 293 603 l 294 603 q 413 667 372 603 q 432 726 429 694 q 378 847 439 803 q 318 874 350 867 q 190 828 242 886 q 161 774 169 803 l 68 799 q 193 949 96 903 q 290 972 240 971 q 296 972 294 972 z "},"4":{"ha":796,"x_min":0,"x_max":658,"o":"m 549 972 l 549 803 l 549 283 l 658 283 l 658 186 l 549 186 l 549 0 l 451 0 l 451 186 l 118 186 l 0 186 l 549 972 m 451 663 l 186 283 l 451 283 l 451 663 z "},"5":{"ha":790,"x_min":0,"x_max":661,"o":"m 57 972 l 154 972 l 606 972 l 606 875 l 154 875 l 154 647 q 431 661 290 714 q 461 647 447 654 q 633 453 586 586 q 649 289 661 372 q 506 63 626 146 q 361 4 439 17 q 306 0 333 0 q 57 108 158 1 q 0 189 22 146 l 88 233 q 246 106 138 133 q 346 100 294 92 q 519 214 460 118 q 551 304 544 257 q 490 507 569 421 q 418 560 458 540 q 201 563 310 614 q 131 511 161 542 l 57 432 l 57 875 l 57 972 z "},"6":{"ha":776,"x_min":-46,"x_max":639,"o":"m 536 972 l 536 875 q 269 774 394 875 q 201 706 231 742 q 117 544 142 632 q 325 625 207 625 q 558 521 465 625 q 638 313 638 431 q 532 79 638 172 q 325 0 443 0 q 92 106 185 0 q 24 228 43 160 q 24 228 24 228 l 24 229 q 21 243 22 236 q 88 714 -44 506 q 126 767 106 742 q 433 961 250 919 q 536 972 486 972 m 325 528 q 153 443 218 528 q 110 313 110 385 q 114 268 110 289 q 118 253 117 260 q 235 117 144 158 q 325 97 278 97 q 496 182 432 97 q 540 313 540 240 q 456 485 540 419 q 325 528 397 528 z "},"7":{"ha":789,"x_min":0,"x_max":651,"o":"m 36 972 l 650 972 l 111 0 l 0 0 l 485 875 l 36 875 l 36 972 z "},"8":{"ha":729,"x_min":0,"x_max":592,"o":"m 296 972 q 482 882 410 972 q 535 733 535 815 q 447 549 533 621 q 583 358 557 482 q 590 296 590 326 q 489 74 590 161 q 296 0 406 0 q 74 101 161 0 q 0 296 0 186 q 101 517 0 429 q 143 549 122 535 q 56 733 57 622 q 146 919 56 847 q 296 972 213 972 m 296 875 q 176 810 218 875 q 153 733 154 774 q 219 613 153 654 q 294 590 254 590 l 296 590 q 415 656 374 592 q 438 733 438 692 q 372 853 438 811 q 296 875 336 875 m 294 493 q 135 413 194 493 q 97 296 97 360 q 178 135 97 194 q 296 97 231 97 q 456 178 396 97 q 493 296 493 231 q 413 456 493 396 q 296 493 360 493 l 294 493 z "},"9":{"ha":776,"x_min":0,"x_max":683,"o":"m 313 972 q 546 867 453 972 q 614 744 594 813 q 614 743 614 744 q 617 729 615 735 q 550 258 682 467 q 511 206 532 231 q 204 11 388 53 q 101 0 151 0 l 101 97 q 368 199 243 97 q 436 267 407 231 q 521 428 496 340 q 313 347 431 347 q 79 451 172 347 q 0 660 0 542 q 106 893 0 800 q 313 972 194 972 m 313 875 q 142 790 206 875 q 97 660 97 732 q 182 488 97 553 q 313 444 240 444 q 485 529 419 444 q 528 660 528 588 q 524 704 528 683 q 519 719 521 713 q 403 856 493 814 q 313 875 360 875 z "},"A":{"ha":957,"x_min":0,"x_max":819,"o":"m 410 972 l 463 847 l 818 0 l 713 0 l 651 146 l 167 146 l 106 0 l 0 0 l 410 972 m 410 722 l 208 243 l 611 243 l 410 722 z "},"B":{"ha":792,"x_min":0,"x_max":653,"o":"m 0 972 l 76 972 l 97 972 l 325 972 q 568 865 471 972 q 653 649 653 772 q 544 408 653 506 q 538 403 540 406 q 646 267 621 361 q 653 211 653 239 q 575 43 653 107 q 454 0 521 0 l 97 0 l 76 0 l 0 0 l 0 972 m 97 875 l 97 422 l 328 422 q 508 511 440 424 q 556 649 556 572 q 468 826 556 758 q 325 875 404 875 l 325 875 l 97 875 m 454 325 l 328 325 l 326 325 l 325 325 l 97 325 l 97 97 l 454 97 q 542 153 513 97 q 556 211 556 181 q 501 313 556 281 q 454 325 478 325 z "},"C":{"ha":965,"x_min":0,"x_max":828,"o":"m 475 974 q 808 849 667 978 q 828 829 818 839 l 758 761 q 481 876 643 878 q 338 847 406 875 q 133 651 197 789 q 97 486 97 572 q 213 208 97 322 q 336 125 267 154 q 640 129 489 61 q 757 210 707 160 l 826 142 q 501 -1 692 6 q 299 36 396 -4 q 53 267 133 106 q 0 488 0 371 q 132 821 0 679 q 300 938 204 897 q 475 974 385 971 z "},"D":{"ha":792,"x_min":0,"x_max":653,"o":"m 0 972 l 97 972 l 171 972 q 506 836 365 972 q 653 507 644 700 q 653 486 653 496 q 517 149 653 290 q 192 0 383 8 q 171 0 181 0 l 97 0 l 0 0 l 0 972 m 97 875 l 97 97 l 171 97 q 449 217 335 97 q 556 486 556 331 q 438 767 556 653 q 171 875 325 874 l 97 875 z "},"E":{"ha":694,"x_min":0,"x_max":556,"o":"m 0 972 l 97 972 l 97 972 l 556 972 l 556 875 l 97 875 l 97 375 l 485 375 l 485 278 l 97 278 l 97 97 l 556 97 l 556 0 l 97 0 l 0 0 l 0 972 z "},"F":{"ha":693,"x_min":0,"x_max":556,"o":"m 0 972 l 97 972 l 556 972 l 556 875 l 97 875 l 97 375 l 485 375 l 485 278 l 97 278 l 97 0 l 0 0 l 0 972 z "},"G":{"ha":965,"x_min":-4,"x_max":828,"o":"m 485 974 q 821 836 681 972 q 828 829 825 832 l 758 761 q 475 876 640 881 q 211 764 321 872 q 97 478 93 644 q 210 211 101 322 q 492 96 326 92 q 728 183 625 100 l 728 375 l 456 375 l 456 472 l 825 472 l 825 140 q 492 -1 686 3 q 156 128 297 -4 q 140 143 147 136 q 0 479 3 282 q 131 819 -3 676 q 143 832 138 826 q 476 974 281 971 q 485 974 482 974 z "},"H":{"ha":790,"x_min":0,"x_max":653,"o":"m 0 972 l 97 972 l 97 375 l 556 375 l 556 972 l 653 972 l 653 0 l 556 0 l 556 278 l 97 278 l 97 0 l 0 0 l 0 972 z "},"I":{"ha":236,"x_min":0,"x_max":97,"o":"m 0 972 l 97 972 l 97 0 l 0 0 l 0 972 z "},"J":{"ha":789,"x_min":0,"x_max":651,"o":"m 281 972 l 554 972 l 650 972 l 651 972 l 651 307 q 542 78 651 169 q 325 0 449 0 q 83 103 181 0 q 0 307 0 192 l 97 307 q 182 143 97 206 q 325 97 246 97 q 510 182 440 97 q 554 307 554 239 l 554 875 l 281 875 l 281 972 z "},"K":{"ha":832,"x_min":0,"x_max":694,"o":"m 0 972 l 97 972 l 97 363 l 556 972 l 678 972 l 268 426 l 694 0 l 557 0 l 208 349 l 97 200 l 97 0 l 0 0 l 0 972 z "},"L":{"ha":694,"x_min":0,"x_max":556,"o":"m 0 972 l 97 972 l 97 97 l 556 97 l 556 0 l 97 0 l 29 0 l 0 0 l 0 972 z "},"M":{"ha":1151,"x_min":0,"x_max":1014,"o":"m 108 972 l 189 818 l 507 210 l 825 817 l 906 971 l 1014 0 l 915 0 l 844 644 l 507 0 l 453 104 l 169 644 l 97 0 l 0 0 l 108 972 z "},"N":{"ha":843,"x_min":0,"x_max":706,"o":"m 607 972 l 704 972 l 704 0 l 607 114 l 97 710 l 97 0 l 0 0 l 0 972 l 97 858 l 607 263 l 607 972 z "},"O":{"ha":1103,"x_min":0,"x_max":965,"o":"m 482 972 q 818 836 678 972 q 965 507 957 700 q 965 486 965 496 q 829 149 965 290 q 504 0 696 8 q 482 0 493 0 q 147 136 288 0 q 0 465 8 272 q 0 486 0 476 q 136 824 0 682 q 461 972 269 964 q 482 972 472 972 m 482 875 q 204 756 318 875 q 97 486 97 642 q 217 206 97 319 q 482 97 329 97 q 761 217 647 97 q 868 486 868 331 q 749 767 868 653 q 482 875 636 875 z "},"P":{"ha":792,"x_min":0,"x_max":654,"o":"m 72 972 l 299 972 q 558 861 453 972 q 653 625 653 760 q 540 371 653 475 q 299 278 438 278 l 299 278 l 97 278 l 97 0 l 0 0 l 0 972 l 72 972 m 97 875 l 97 375 l 299 375 q 499 468 422 375 q 556 625 556 538 q 463 818 556 743 q 299 875 390 875 l 97 875 z "},"Q":{"ha":1103,"x_min":0,"x_max":965,"o":"m 482 971 q 818 835 678 971 q 965 506 957 699 q 965 485 965 494 q 831 149 965 289 q 608 15 736 51 q 619 10 617 11 q 739 -44 706 -43 q 806 -28 781 -43 q 881 60 844 -4 l 965 11 q 856 -111 914 -76 q 739 -142 806 -140 q 586 -85 676 -142 q 568 -74 571 -75 q 444 -21 482 -21 q 321 -92 367 -21 q 297 -139 308 -112 l 208 -99 q 308 32 246 -15 q 60 251 144 96 q 0 485 0 360 q 136 822 0 681 q 461 971 269 963 q 482 971 472 971 m 482 874 q 204 754 318 874 q 97 485 97 640 q 217 204 97 318 q 482 96 329 96 q 761 215 647 96 q 868 485 868 329 q 749 765 868 651 q 482 874 638 874 z "},"R":{"ha":792,"x_min":0,"x_max":654,"o":"m 72 972 l 299 972 q 558 861 453 972 q 653 625 653 760 q 540 371 653 475 q 403 293 479 317 l 653 0 l 525 0 l 288 278 l 97 278 l 97 0 l 0 0 l 0 972 l 72 972 m 97 875 l 97 375 l 204 375 l 311 375 q 506 476 433 381 q 556 625 556 543 q 463 818 556 743 q 299 875 390 875 l 97 875 z "},"S":{"ha":833,"x_min":0,"x_max":696,"o":"m 351 974 l 351 974 q 682 843 542 974 q 694 829 689 836 l 626 761 q 351 876 511 876 l 351 876 q 124 761 181 876 q 104 675 104 721 q 169 529 104 579 q 176 525 174 526 q 361 456 233 485 q 533 415 514 422 q 571 403 554 410 q 656 346 626 379 q 693 243 693 301 q 588 67 693 136 q 581 61 583 64 q 344 0 481 0 q 14 131 153 0 q 0 144 6 138 l 69 213 q 344 97 183 97 q 529 144 454 97 q 596 243 596 188 q 583 282 594 267 q 535 313 567 299 q 344 360 503 325 q 340 361 342 361 q 119 446 192 394 q 7 675 8 526 q 104 886 7 800 q 351 974 201 974 z "},"T":{"ha":790,"x_min":0,"x_max":653,"o":"m 0 972 l 653 972 l 653 875 l 375 875 l 375 0 l 278 0 l 278 875 l 0 875 l 0 972 z "},"U":{"ha":790,"x_min":0,"x_max":653,"o":"m 0 972 l 97 972 l 97 322 q 183 146 97 214 q 326 97 247 97 q 508 185 439 97 q 556 322 556 244 l 556 972 l 653 972 l 653 322 q 546 83 653 181 q 326 0 451 0 q 85 106 182 0 q 0 322 0 199 l 0 972 z "},"V":{"ha":957,"x_min":0,"x_max":819,"o":"m 0 972 l 106 972 l 410 250 l 713 972 l 818 972 l 463 125 l 410 0 l 0 972 z "},"W":{"ha":1328,"x_min":0,"x_max":1190,"o":"m 0 972 l 103 972 l 349 288 l 543 828 l 594 972 l 646 828 l 840 288 l 1086 972 l 1189 972 l 892 144 l 840 0 l 840 0 l 789 144 l 594 685 l 400 144 l 349 0 l 297 144 l 0 972 z "},"X":{"ha":833,"x_min":0,"x_max":696,"o":"m 0 972 l 111 972 l 347 543 l 583 972 l 694 972 l 403 442 l 646 0 l 535 0 l 347 342 l 160 0 l 49 0 l 292 442 l 0 972 z "},"Y":{"ha":826,"x_min":0,"x_max":689,"o":"m 0 972 l 107 972 l 344 465 l 581 972 l 688 972 l 397 351 l 393 340 l 393 0 l 296 0 l 296 340 l 290 351 l 0 972 z "},"Z":{"ha":733,"x_min":0,"x_max":596,"o":"m 488 972 l 596 972 l 547 875 l 157 97 l 556 97 l 556 0 l 108 0 l 0 0 l 0 1 l 49 97 l 438 875 l 40 875 l 40 972 l 488 972 z "},"a":{"ha":864,"x_min":-7,"x_max":726,"o":"m 361 972 q 367 972 364 972 q 479 953 425 971 q 686 774 618 906 q 726 607 726 694 l 726 0 l 629 0 l 629 114 q 369 -3 524 0 q 344 -3 357 -3 q 89 124 190 6 q 0 379 -6 236 q 126 639 7 536 q 360 729 228 726 q 378 728 369 729 q 629 611 528 721 q 532 814 626 735 q 447 861 493 844 q 221 833 328 901 q 151 769 181 807 l 74 828 q 317 969 165 950 q 361 972 340 972 m 360 632 q 158 535 236 631 q 97 375 101 464 q 185 164 92 249 q 350 94 256 100 q 558 181 475 89 q 629 349 622 253 l 629 353 q 539 564 633 481 q 374 631 468 626 q 360 632 367 632 z "},"b":{"ha":792,"x_min":0,"x_max":653,"o":"m 0 972 l 97 972 l 325 972 q 483 889 424 972 q 524 761 524 831 q 468 615 522 676 q 633 435 588 557 q 653 324 653 382 q 544 83 653 181 q 325 0 450 0 l 97 0 l 76 0 l 0 0 l 0 875 l 0 972 m 97 875 l 97 647 l 325 647 q 413 703 383 647 q 426 761 426 731 q 372 863 426 831 q 325 875 349 875 l 97 875 m 97 550 l 97 97 l 325 97 l 325 97 q 507 183 438 97 q 556 324 556 246 q 468 501 556 435 q 325 550 404 550 l 97 550 z "},"c":{"ha":965,"x_min":0,"x_max":828,"o":"m 475 972 q 807 849 665 976 q 828 828 818 838 l 758 760 q 481 875 643 876 q 338 846 406 874 q 133 650 197 788 q 97 485 97 571 q 213 207 97 321 q 336 124 267 153 q 640 128 489 60 q 757 208 707 158 l 826 140 q 501 -3 692 4 q 299 35 396 -7 q 53 265 133 104 q 0 486 0 369 q 132 819 0 679 q 300 936 204 896 q 475 972 385 971 z "},"d":{"ha":792,"x_min":0,"x_max":653,"o":"m 0 971 l 97 971 l 171 971 q 506 835 365 971 q 653 506 644 699 q 653 485 653 494 q 517 147 653 289 q 192 -1 383 7 q 171 -1 181 -1 l 97 -1 l 0 -1 l 0 971 m 97 874 l 97 96 l 171 96 q 449 215 335 96 q 556 485 556 328 q 438 765 556 651 q 171 874 325 874 l 97 874 z "},"e":{"ha":1106,"x_min":-33,"x_max":979,"o":"m 483 972 q 493 972 489 972 q 582 963 539 971 q 876 769 767 924 q 967 449 979 625 l 967 446 l 99 446 q 238 185 115 286 q 311 136 272 156 q 618 118 461 60 q 804 265 735 163 l 885 211 q 597 11 781 56 q 267 49 425 -31 q 35 303 104 132 q 26 644 -32 472 q 249 910 88 819 q 483 972 360 972 m 482 875 q 208 760 322 875 q 118 613 147 696 q 101 543 107 578 l 867 543 q 718 796 843 700 q 563 867 647 849 q 482 875 522 875 z "},"f":{"ha":693,"x_min":0,"x_max":556,"o":"m 0 972 l 97 972 l 556 972 l 556 875 l 97 875 l 97 375 l 485 375 l 485 278 l 97 278 l 97 0 l 0 0 l 0 972 z "},"g":{"ha":1106,"x_min":-39,"x_max":968,"o":"m 486 972 q 817 839 678 971 q 828 829 824 833 l 758 760 q 478 875 642 878 q 274 813 367 872 q 106 568 140 725 q 124 343 82 453 q 319 132 181 199 q 549 100 429 81 q 799 258 706 128 q 856 374 836 313 l 546 374 l 546 471 l 968 471 l 968 467 q 824 138 961 274 q 565 4 714 31 q 210 83 372 -29 q 33 308 88 169 q 39 676 -39 493 q 219 893 97 813 q 474 972 336 969 q 486 972 481 972 z "},"h":{"ha":790,"x_min":0,"x_max":653,"o":"m 0 972 l 97 972 l 97 375 l 556 375 l 556 972 l 653 972 l 653 0 l 556 0 l 556 278 l 97 278 l 97 0 l 0 0 l 0 972 z "},"i":{"ha":236,"x_min":0,"x_max":97,"o":"m 0 972 l 97 972 l 97 0 l 0 0 l 0 972 z "},"j":{"ha":789,"x_min":0,"x_max":651,"o":"m 554 972 l 651 972 l 651 307 q 542 78 651 169 q 325 0 449 1 q 83 103 181 0 q 0 307 0 192 l 97 307 q 182 143 97 207 q 325 97 246 99 q 510 182 440 97 q 554 307 554 239 l 554 972 z "},"k":{"ha":832,"x_min":0,"x_max":694,"o":"m 0 972 l 97 972 l 97 363 l 556 972 l 678 972 l 268 426 l 694 0 l 557 0 l 208 349 l 97 200 l 97 0 l 0 0 l 0 972 z "},"l":{"ha":694,"x_min":0,"x_max":556,"o":"m 0 972 l 97 972 l 97 97 l 556 97 l 556 0 l 97 0 l 29 0 l 0 0 l 0 972 z "},"m":{"ha":1292,"x_min":0,"x_max":1154,"o":"m 0 972 l 97 972 l 97 890 q 313 972 189 972 q 547 872 453 972 q 576 835 564 854 q 781 967 649 943 q 840 972 811 972 q 1074 872 981 972 q 1153 678 1153 788 l 1153 0 l 1056 0 l 1056 678 q 974 833 1056 774 q 840 875 914 875 q 665 793 731 875 q 625 678 625 742 l 625 0 l 528 0 l 528 678 q 444 835 528 775 q 313 875 386 875 q 138 793 203 875 q 97 678 97 740 l 97 0 l 0 0 l 0 972 z "},"n":{"ha":833,"x_min":0,"x_max":696,"o":"m 0 972 l 97 972 l 97 872 q 347 972 201 971 q 604 865 500 972 q 694 644 694 771 l 694 0 l 597 0 l 597 644 q 506 822 597 754 q 347 875 436 875 q 150 786 225 875 q 97 644 97 724 l 97 0 l 0 0 l 0 644 l 0 972 z "},"o":{"ha":1103,"x_min":0,"x_max":965,"o":"m 483 972 q 818 836 678 972 q 965 507 957 700 q 965 486 965 496 q 829 149 965 290 q 504 0 696 8 q 483 0 493 0 q 147 136 288 0 q 0 465 8 272 q 0 486 0 476 q 136 824 0 682 q 461 972 269 964 q 483 972 472 972 m 483 875 q 204 756 318 875 q 97 486 97 642 q 217 206 97 319 q 483 97 329 97 q 761 217 647 97 q 868 486 868 331 q 749 767 868 653 q 483 875 636 875 z "},"p":{"ha":792,"x_min":0,"x_max":654,"o":"m 72 972 l 299 972 q 558 861 453 972 q 653 625 653 760 q 540 371 653 475 q 299 278 438 278 l 299 278 l 97 278 l 97 0 l 0 0 l 0 972 l 72 972 m 97 875 l 97 375 l 299 375 q 499 468 422 375 q 556 625 556 538 q 463 818 556 743 q 299 875 390 875 l 97 875 z "},"q":{"ha":1103,"x_min":0,"x_max":965,"o":"m 482 971 q 818 835 678 971 q 965 506 957 699 q 965 485 965 494 q 829 147 965 289 q 592 11 729 43 q 665 -17 646 -15 q 718 -3 703 -17 q 747 32 732 10 l 826 -25 q 665 -114 763 -112 q 549 -76 621 -112 q 471 -49 493 -49 q 396 -87 422 -49 q 388 -101 392 -94 l 301 -56 q 363 14 326 -12 q 85 211 188 60 q 0 485 0 336 q 136 822 0 681 q 461 971 269 963 q 482 971 472 971 m 482 874 q 204 754 318 874 q 97 485 97 640 q 217 204 97 318 q 482 96 329 96 q 761 215 647 96 q 868 485 868 329 q 749 765 868 651 q 482 874 636 874 z "},"r":{"ha":792,"x_min":0,"x_max":654,"o":"m 72 972 l 299 972 q 558 861 453 972 q 653 625 653 760 q 540 371 653 475 q 403 293 479 317 l 653 0 l 525 0 l 288 278 l 97 278 l 97 0 l 0 0 l 0 972 l 72 972 m 97 875 l 97 375 l 204 375 l 311 375 q 506 476 433 381 q 556 625 556 542 q 463 818 556 743 q 299 875 390 875 l 97 875 z "},"s":{"ha":833,"x_min":0,"x_max":696,"o":"m 351 974 q 682 843 542 974 q 694 829 689 836 l 626 761 q 351 876 511 876 l 351 876 q 121 760 175 876 q 104 681 104 722 q 147 588 104 617 q 169 575 157 581 q 358 525 218 550 q 574 463 510 499 q 576 461 575 461 q 692 282 681 401 q 693 254 693 268 q 592 69 693 142 q 581 63 586 65 q 344 0 483 0 q 14 131 153 0 q 0 144 6 138 l 69 213 q 344 97 183 97 q 529 144 456 97 q 596 254 596 189 q 549 364 596 329 q 529 376 539 371 q 342 429 478 406 q 138 482 193 456 q 125 488 131 486 q 10 643 28 539 q 7 681 7 663 q 106 890 7 806 q 351 974 203 974 z "},"t":{"ha":790,"x_min":0,"x_max":653,"o":"m 0 972 l 653 972 l 653 875 l 375 875 l 375 0 l 278 0 l 278 875 l 0 875 l 0 972 z "},"u":{"ha":790,"x_min":0,"x_max":653,"o":"m 0 972 l 97 972 l 97 322 q 183 146 97 214 q 326 97 247 97 q 508 185 439 97 q 556 322 556 244 l 556 972 l 653 972 l 653 322 q 546 83 653 181 q 326 0 451 0 q 85 106 182 0 q 0 322 0 199 l 0 972 z "},"v":{"ha":957,"x_min":0,"x_max":819,"o":"m 0 972 l 106 972 l 410 250 l 713 972 l 818 972 l 463 125 l 410 0 l 0 972 z "},"w":{"ha":1328,"x_min":0,"x_max":1190,"o":"m 0 972 l 103 972 l 349 288 l 543 828 l 594 972 l 646 828 l 840 288 l 1086 972 l 1189 972 l 892 144 l 840 0 l 840 0 l 789 144 l 594 685 l 400 144 l 349 0 l 297 144 l 0 972 z "},"x":{"ha":833,"x_min":0,"x_max":696,"o":"m 0 972 l 111 972 l 347 543 l 583 972 l 694 972 l 403 442 l 646 0 l 535 0 l 347 342 l 160 0 l 49 0 l 292 442 l 0 972 z "},"y":{"ha":826,"x_min":0,"x_max":689,"o":"m 0 972 l 107 972 l 344 465 l 581 972 l 688 972 l 397 351 l 393 340 l 393 0 l 296 0 l 296 340 l 290 351 l 0 972 z "},"z":{"ha":733,"x_min":0,"x_max":596,"o":"m 488 972 l 596 972 l 547 875 l 157 97 l 556 97 l 556 0 l 108 0 l 0 0 l 0 1 l 49 97 l 438 875 l 40 875 l 40 972 l 488 972 z "},"":{"ha":1757,"x_min":0,"x_max":1619,"o":"m 967 972 l 1064 972 l 1064 417 q 1074 413 1074 413 q 1308 322 1236 335 q 1313 321 1311 322 q 1522 365 1425 304 l 1522 972 l 1619 972 l 1619 0 l 1522 0 l 1522 256 q 1296 225 1413 207 q 1064 310 1208 240 l 1064 0 l 967 0 l 967 354 q 786 410 861 400 q 525 336 651 424 l 469 415 q 740 508 600 506 q 797 506 769 510 q 967 460 876 497 l 967 972 m 481 972 q 811 844 671 974 q 828 828 821 836 l 758 760 q 481 875 643 876 q 338 846 406 874 q 133 650 197 788 q 97 485 97 571 q 213 207 97 321 q 336 124 267 153 q 640 128 489 60 q 757 208 707 158 l 826 140 q 501 -3 692 4 q 299 35 396 -6 q 53 265 133 104 q 0 486 0 369 q 132 819 0 679 q 300 936 204 896 q 475 972 385 971 q 481 972 478 972 z "},"":{"ha":1063,"x_min":0,"x_max":936,"o":"m 0 972 l 97 972 l 97 142 q 407 118 231 176 q 485 92 414 117 q 685 51 614 47 q 868 122 774 58 l 922 42 q 532 -25 744 -79 q 453 0 496 -15 q 268 56 314 49 q 68 29 165 71 l 0 -1 l 0 972 m 582 971 q 661 961 624 971 q 875 803 801 928 q 922 583 936 700 l 901 586 l 901 583 l 336 583 q 453 411 356 471 q 467 404 460 407 q 683 399 574 347 q 785 485 746 428 l 842 400 q 601 279 747 289 q 422 317 506 274 q 253 521 296 383 q 258 746 217 635 q 435 939 307 879 q 582 971 507 972 m 582 874 q 392 786 465 875 q 349 713 364 753 q 339 681 343 696 l 821 681 q 699 843 796 790 q 639 867 669 860 q 582 874 610 874 z "},"":{"ha":694,"x_min":0,"x_max":556,"o":"m 0 972 l 97 972 l 556 972 l 556 875 l 97 875 l 97 674 l 485 674 l 485 576 l 97 576 l 97 375 l 556 375 l 556 278 l 97 278 l 0 278 l 0 972 m 0 97 l 556 97 l 556 0 l 0 0 l 0 97 z "}," ":{"ha":417,"x_min":0,"x_max":0,"o":""},".":{"ha":265,"x_min":0,"x_max":128,"o":"m 0 64 q 39 122 0 106 q 64 126 51 126 q 122 88 106 126 q 126 64 126 75 q 88 4 126 21 q 64 0 76 0 q 4 39 21 0 q 0 64 0 51 z "},"#":{"ha":1039,"x_min":0,"x_max":901,"o":"m 346 972 l 444 972 l 390 656 l 588 656 l 642 972 l 740 972 l 686 656 l 900 656 l 900 558 l 669 558 l 638 375 l 850 375 l 850 278 l 621 278 l 574 0 l 475 0 l 522 278 l 326 278 l 279 0 l 181 0 l 228 278 l 0 278 l 0 375 l 244 375 l 275 558 l 50 558 l 50 656 l 292 656 l 346 972 m 374 558 l 343 375 l 539 375 l 571 558 l 374 558 z "},"¢":{"ha":726,"x_min":0,"x_max":589,"o":"m 265 972 l 363 972 l 363 836 q 589 733 496 828 l 519 665 q 363 739 453 732 l 363 240 q 518 313 454 247 l 588 244 q 363 143 493 150 l 363 0 l 265 0 l 265 151 q 213 168 238 158 q 29 350 85 222 q 0 490 0 418 q 108 742 0 639 q 213 810 154 786 q 265 826 239 821 l 265 972 m 265 726 q 250 721 257 724 q 113 575 150 679 q 97 490 97 533 q 186 297 97 372 q 250 258 217 272 q 265 253 258 256 l 265 726 z "},"€":{"ha":943,"x_min":0,"x_max":806,"o":"m 511 969 q 783 849 668 971 q 804 824 794 836 l 729 763 q 496 874 629 886 q 401 846 447 869 q 236 647 289 789 q 231 629 233 638 l 543 629 l 543 532 l 211 532 q 208 486 208 508 q 211 440 208 463 l 543 440 l 543 343 l 231 343 q 388 132 276 197 q 401 125 394 128 q 651 136 529 58 q 728 207 693 165 l 804 146 q 542 1 697 14 q 357 38 444 -6 q 144 290 208 114 q 129 343 135 317 l 0 343 l 0 440 l 113 440 q 111 486 111 464 q 113 532 111 510 l 0 532 l 0 629 l 129 629 q 318 910 176 815 q 358 933 339 922 q 507 969 429 968 q 511 969 510 969 z "},"$":{"ha":767,"x_min":0,"x_max":629,"o":"m 256 972 l 353 972 l 353 924 q 628 794 514 910 l 558 726 q 353 826 472 813 l 353 519 q 521 467 464 499 q 626 304 614 414 q 628 278 628 290 q 533 107 628 174 q 525 101 529 104 q 353 47 453 56 l 353 0 l 256 0 l 256 49 q 0 176 106 69 l 69 244 q 256 147 147 165 l 256 439 q 114 482 164 456 q 8 622 25 528 q 6 658 6 642 q 99 853 6 774 q 256 921 164 906 l 256 972 m 256 822 q 107 701 133 801 q 103 658 103 681 q 138 581 103 604 q 158 568 147 574 q 256 538 190 551 l 256 822 m 353 421 l 353 144 q 472 183 425 154 q 531 278 529 222 q 490 372 531 343 q 474 382 482 378 q 353 421 435 404 z "},"£":{"ha":742,"x_min":0,"x_max":604,"o":"m 383 972 q 392 972 386 972 q 603 890 503 969 l 543 814 q 318 863 426 907 q 311 860 314 861 q 204 685 213 814 q 204 667 204 675 q 236 475 204 594 q 238 471 238 472 l 543 471 l 543 374 l 258 374 q 211 96 274 247 l 603 96 l 603 -1 l 57 -1 l 92 69 q 163 353 176 239 q 160 374 163 364 l 0 374 l 0 471 l 136 471 q 107 667 107 578 q 210 908 107 821 q 271 949 239 933 q 383 972 325 972 z "},"¥":{"ha":826,"x_min":0,"x_max":689,"o":"m 0 972 l 107 972 l 344 465 l 581 972 l 688 972 l 438 438 l 615 438 l 615 340 l 393 340 l 393 250 l 615 250 l 615 153 l 393 153 l 393 0 l 296 0 l 296 153 l 72 153 l 72 250 l 296 250 l 296 340 l 72 340 l 72 438 l 250 438 l 0 972 z "},"%":{"ha":1003,"x_min":0,"x_max":865,"o":"m 186 972 q 336 896 281 972 q 374 786 372 846 q 297 636 374 692 q 186 599 247 600 q 36 675 93 599 q 0 786 0 725 q 76 936 0 879 q 186 972 126 972 m 672 972 l 786 972 l 192 0 l 78 0 l 672 972 m 186 875 q 107 826 132 875 q 97 786 97 807 q 146 706 97 731 q 186 696 165 697 q 267 744 242 696 q 276 786 275 765 q 228 865 276 840 q 186 875 207 875 m 678 371 q 828 294 772 371 q 865 185 864 244 q 788 33 865 90 q 706 0 750 7 l 651 0 q 517 92 563 13 q 492 185 492 136 q 568 335 492 278 q 678 371 618 371 m 678 274 q 599 225 622 274 q 589 185 589 206 q 638 104 589 129 q 678 96 657 96 q 758 144 733 96 q 768 185 767 164 q 719 264 768 240 q 678 274 699 274 z "},"©":{"ha":1111,"x_min":0,"x_max":972,"o":"m 486 972 q 824 836 682 972 q 972 507 964 700 q 972 486 972 496 q 836 149 972 290 q 507 0 700 8 q 486 0 496 0 q 149 136 290 0 q 0 465 8 272 q 0 486 0 476 q 136 824 0 682 q 465 972 272 964 q 486 972 476 972 m 486 875 q 206 756 319 875 q 97 486 97 642 q 217 206 97 319 q 486 97 331 97 q 767 217 653 97 q 875 486 875 331 q 756 767 875 653 q 486 875 642 875 m 489 786 q 694 697 610 785 l 625 629 q 456 686 554 703 q 413 674 433 682 q 301 547 328 638 q 292 486 292 517 q 369 324 292 385 q 413 299 390 308 q 590 314 506 258 q 624 342 610 326 l 694 275 q 471 186 603 179 q 375 210 421 190 q 215 375 261 258 q 194 486 194 429 q 293 711 194 621 q 375 764 331 744 q 481 786 426 785 q 489 786 485 786 z "},"®":{"ha":1111,"x_min":0,"x_max":972,"o":"m 486 972 q 824 836 682 972 q 972 507 964 700 q 972 486 972 496 q 836 149 972 290 q 507 0 700 8 q 486 0 496 0 q 149 136 290 0 q 0 465 8 272 q 0 486 0 476 q 136 824 0 682 q 465 972 272 964 q 486 972 476 972 m 486 875 q 206 756 319 875 q 97 486 97 642 q 217 206 97 319 q 486 97 331 97 q 767 217 653 97 q 875 486 875 331 q 756 767 875 653 q 486 875 642 875 m 311 744 l 408 744 l 485 744 q 647 664 586 744 q 688 546 688 611 q 607 388 688 447 q 589 375 597 381 l 707 232 l 663 232 l 599 232 l 581 232 l 486 347 l 485 347 l 408 347 l 408 232 l 311 232 l 311 744 m 408 647 l 408 444 l 486 444 q 578 499 550 444 q 590 546 590 521 q 536 635 590 606 q 485 647 513 647 l 485 647 l 408 647 z "},"@":{"ha":1110,"x_min":-7,"x_max":972,"o":"m 490 972 q 618 954 556 971 q 896 747 796 904 q 972 493 969 631 l 972 493 l 972 492 l 972 490 q 863 182 971 272 q 811 151 838 163 q 678 168 738 124 q 672 174 675 172 q 615 303 621 219 q 485 261 556 263 q 308 347 376 261 q 258 489 260 411 q 344 667 258 599 q 485 717 407 717 q 614 676 557 717 l 614 697 l 711 697 l 711 489 l 711 318 q 735 247 713 268 q 776 243 753 235 q 853 342 824 261 q 875 492 875 407 q 754 768 872 656 q 592 860 683 833 q 288 821 431 906 q 157 693 207 772 q 110 389 68 551 q 194 229 133 299 q 465 97 303 107 q 651 133 563 93 l 692 46 q 328 26 514 -37 q 122 164 206 69 q 0 504 -7 310 q 75 744 6 635 q 351 953 174 901 q 482 972 415 971 q 490 972 488 972 m 485 619 q 375 558 413 619 q 356 489 357 526 q 419 376 356 415 q 485 358 450 358 q 594 419 557 358 q 614 489 614 453 q 551 601 614 564 q 485 619 521 619 z "},"&":{"ha":883,"x_min":0,"x_max":746,"o":"m 250 974 q 260 974 256 974 q 379 924 331 969 q 442 763 440 863 q 375 604 440 678 q 271 510 342 565 q 396 372 315 458 l 542 217 q 592 375 590 289 l 689 375 q 610 144 688 246 l 744 0 l 611 0 l 540 76 q 313 0 439 0 q 63 110 154 0 q 0 278 0 186 q 64 453 1 372 q 135 525 92 488 q 124 540 125 539 q 46 747 47 651 q 138 936 46 869 q 242 974 186 969 q 250 974 246 974 m 251 876 q 246 876 249 876 q 151 803 175 872 q 143 747 144 778 q 203 596 144 679 q 210 586 206 593 q 303 668 276 639 q 344 763 343 717 q 313 853 343 822 q 256 876 289 875 q 251 876 253 876 m 196 449 q 140 393 160 417 q 97 278 97 338 q 175 133 97 186 q 313 97 232 97 q 474 147 401 97 l 325 306 q 196 449 239 397 z "},"'":{"ha":322,"x_min":0,"x_max":185,"o":"m 78 972 l 183 972 l 106 790 l 0 790 l 78 972 z "},"\"":{"ha":510,"x_min":0,"x_max":372,"o":"m 78 972 l 183 972 l 106 790 l 0 790 l 78 972 m 265 972 l 371 972 l 293 790 l 188 790 l 265 972 z "},"«":{"ha":715,"x_min":0,"x_max":578,"o":"m 219 649 l 343 649 l 124 367 l 340 101 l 215 101 l 0 365 l 219 649 m 454 649 l 578 649 l 358 367 l 574 101 l 449 101 l 235 365 l 454 649 z "},"»":{"ha":715,"x_min":0,"x_max":578,"o":"m 357 649 l 578 365 l 363 101 l 238 101 l 453 367 l 235 649 l 357 649 m 124 649 l 343 365 l 128 101 l 3 101 l 219 367 l 0 649 l 124 649 z "},"<":{"ha":817,"x_min":0,"x_max":679,"o":"m 485 649 l 679 649 l 194 369 l 658 101 l 464 101 l 0 369 l 485 649 z "},">":{"ha":817,"x_min":0,"x_max":679,"o":"m 194 649 l 679 369 l 214 101 l 19 101 l 485 369 l 0 649 l 194 649 z "},"!":{"ha":236,"x_min":0,"x_max":97,"o":"m 0 972 l 97 972 l 97 160 l 0 160 l 0 972 m 49 97 q 94 64 83 97 q 97 49 97 56 q 64 3 97 14 q 49 0 56 0 q 3 33 14 0 q 0 49 0 42 q 33 94 0 83 q 49 97 42 97 z "},"¡":{"ha":236,"x_min":0,"x_max":97,"o":"m 49 826 q 94 793 83 826 q 97 778 97 786 q 64 732 97 743 q 49 729 56 731 q 3 763 14 729 q 0 778 0 771 q 33 825 0 814 q 49 826 42 826 m 0 667 l 97 667 l 97 -146 l 0 -146 l 0 667 z "},"?":{"ha":631,"x_min":0,"x_max":493,"o":"m 240 974 q 251 974 246 974 q 274 972 263 974 q 451 867 388 958 q 492 739 492 807 q 439 572 492 643 q 346 478 417 542 q 338 471 342 474 q 242 343 267 404 q 215 174 215 275 l 118 174 q 260 531 118 393 q 272 542 267 536 q 358 625 346 610 q 361 629 360 628 q 394 739 394 676 q 328 853 394 811 q 263 875 297 871 q 122 825 178 886 q 93 774 101 801 l 0 800 q 132 950 31 904 q 240 974 183 974 m 171 97 q 217 64 206 97 q 219 49 218 56 q 186 3 219 14 q 171 0 178 0 q 124 33 135 0 q 122 49 122 42 q 156 94 122 83 q 171 97 163 97 z "},"¿":{"ha":631,"x_min":0,"x_max":493,"o":"m 322 974 q 368 940 357 974 q 371 925 369 932 q 338 879 371 890 q 322 876 329 876 q 275 910 286 876 q 274 925 274 918 q 306 971 274 960 q 322 974 314 974 m 276 800 l 374 800 q 232 443 374 581 q 219 432 225 438 q 133 349 147 364 q 131 344 132 346 q 97 235 97 297 q 164 121 97 163 q 229 99 194 103 q 369 149 314 88 q 399 200 390 172 l 492 174 q 360 24 463 69 q 242 0 303 -1 q 218 1 229 1 q 40 107 104 15 q 0 235 0 167 q 53 401 1 331 q 146 496 75 432 q 154 503 150 500 q 250 631 225 569 q 276 800 276 699 z "},"+":{"ha":682,"x_min":0,"x_max":544,"o":"m 224 760 l 321 760 l 321 536 l 543 536 l 543 439 l 321 439 l 321 217 l 224 217 l 224 439 l 0 439 l 0 536 l 224 536 l 224 760 z "},"=":{"ha":682,"x_min":0,"x_max":544,"o":"m 0 633 l 543 633 l 543 536 l 0 536 l 0 633 m 0 439 l 543 439 l 543 342 l 0 342 l 0 439 z "},"_":{"ha":979,"x_min":0,"x_max":842,"o":"m 0 97 l 840 97 l 840 0 l 0 0 l 0 97 z "},"-":{"ha":682,"x_min":0,"x_max":544,"o":"m 0 536 l 543 536 l 543 439 l 0 439 l 0 536 z "},"[":{"ha":404,"x_min":0,"x_max":267,"o":"m 0 1069 l 265 1069 l 265 972 l 97 972 l 97 0 l 265 0 l 265 -97 l 0 -97 l 0 1069 z "},"]":{"ha":404,"x_min":0,"x_max":267,"o":"m 0 1069 l 265 1069 l 265 -97 l 0 -97 l 0 0 l 168 0 l 168 972 l 0 972 l 0 1069 z "},"{":{"ha":424,"x_min":0,"x_max":286,"o":"m 285 1069 l 285 972 q 171 928 203 971 q 139 803 143 888 q 138 706 138 772 q 139 633 139 657 q 115 506 136 547 q 138 367 135 458 q 138 292 138 342 q 139 183 136 217 q 174 47 144 89 q 285 0 211 1 l 285 -97 q 93 -8 154 -96 q 42 176 49 58 q 40 296 39 217 q 40 364 40 343 q 19 482 38 451 l 0 511 l 22 539 q 42 635 39 561 q 40 700 42 656 q 42 808 40 771 q 93 985 49 922 q 285 1069 156 1068 z "},"}":{"ha":424,"x_min":0,"x_max":286,"o":"m 0 1069 q 192 985 131 1068 q 243 808 236 921 q 244 700 244 771 q 243 635 243 654 q 263 539 246 560 l 285 511 l 265 482 q 244 364 247 451 q 244 296 244 343 q 243 176 246 217 q 192 -8 235 57 q 0 -97 129 -96 l 0 0 q 111 47 79 3 q 146 183 140 90 q 147 292 149 217 q 147 367 147 342 q 169 506 150 460 q 146 633 149 549 q 147 706 146 657 q 146 803 147 772 q 114 928 140 889 q 0 972 79 971 l 0 1069 z "},"(":{"ha":381,"x_min":-37,"x_max":243,"o":"m 157 1068 l 158 1068 l 242 1021 q 191 921 214 972 q 151 817 168 869 q 122 710 133 764 q 103 601 110 656 q 97 490 97 546 q 102 378 97 433 q 119 266 107 322 q 147 155 131 210 q 188 47 164 100 q 242 -58 213 -7 l 158 -108 q 8 614 -36 229 q 157 1068 36 857 z "},")":{"ha":381,"x_min":0,"x_max":269,"o":"m 85 1068 q 238 382 268 749 q 85 -108 215 121 l 0 -58 q 136 618 183 257 q 0 1021 107 833 l 85 1068 z "},"*":{"ha":538,"x_min":0,"x_max":400,"o":"m 151 972 l 249 972 l 249 854 l 350 914 l 399 829 l 297 769 l 399 711 l 350 626 l 249 686 l 249 568 l 151 568 l 151 686 l 49 626 l 0 711 l 103 769 l 0 829 l 49 914 l 151 854 l 151 972 z "},"\\":{"ha":506,"x_min":0,"x_max":368,"o":"m 0 972 l 101 972 l 367 0 l 267 0 l 0 972 z "},"/":{"ha":506,"x_min":0,"x_max":368,"o":"m 267 972 l 367 972 l 101 0 l 0 0 l 267 972 z "},":":{"ha":265,"x_min":0,"x_max":128,"o":"m 64 642 q 122 601 106 642 q 126 578 126 590 q 126 578 126 578 q 88 519 126 535 q 64 515 75 515 q 4 554 21 515 q 0 578 0 567 q 39 636 0 621 q 64 642 51 642 m 64 126 q 122 88 106 126 q 126 64 126 75 l 126 64 q 88 4 126 21 q 64 0 75 0 q 4 39 21 0 q 0 64 0 51 l 0 64 q 39 122 0 106 q 64 126 51 126 z "},";":{"ha":265,"x_min":0,"x_max":128,"o":"m 64 642 q 122 601 106 642 q 126 578 126 590 q 126 578 126 578 q 88 519 126 535 q 64 515 76 515 q 64 515 64 515 q 4 554 21 515 q 0 578 0 567 q 39 636 0 621 q 64 642 51 642 m 64 126 l 64 126 q 122 88 106 126 q 126 64 126 75 q 117 29 126 44 l 117 29 q 111 21 114 25 l 46 -64 l 0 -64 l 26 13 q 0 64 1 32 q 39 122 0 106 q 64 126 51 126 z "},",":{"ha":265,"x_min":0,"x_max":128,"o":"m 64 126 l 64 126 q 122 88 106 126 q 126 64 126 76 q 117 29 126 44 l 117 29 q 111 21 114 25 l 46 -64 l 0 -64 l 26 13 q 0 64 1 32 q 39 122 0 106 q 64 126 51 126 z "},"|":{"ha":236,"x_min":0,"x_max":97,"o":"m 0 972 l 97 972 l 97 0 l 0 0 l 0 972 z "},"^":{"ha":525,"x_min":0,"x_max":388,"o":"m 190 963 l 388 683 l 268 683 l 192 792 l 118 683 l 0 683 l 190 963 z "},"`":{"ha":322,"x_min":0,"x_max":185,"o":"m 106 972 l 183 790 l 78 790 l 0 972 l 106 972 z "},"~":{"ha":664,"x_min":0,"x_max":526,"o":"m 169 601 q 290 564 217 600 q 364 536 344 538 q 417 550 401 536 q 446 585 429 561 l 525 528 q 364 439 461 440 q 247 476 319 440 q 169 504 192 503 q 94 465 121 504 q 86 450 89 458 l 0 497 q 149 600 50 589 q 169 601 160 601 z "},"‘":{"ha":322,"x_min":0,"x_max":185,"o":"m 78 972 l 183 972 l 106 790 l 0 790 l 78 972 z "},"’":{"ha":322,"x_min":0,"x_max":185,"o":"m 78 972 l 183 972 l 106 790 l 0 790 l 78 972 z "},"“":{"ha":510,"x_min":0,"x_max":372,"o":"m 78 972 l 183 972 l 106 790 l 0 790 l 78 972 m 265 972 l 371 972 l 293 790 l 188 790 l 265 972 z "},"”":{"ha":510,"x_min":0,"x_max":372,"o":"m 78 972 l 183 972 l 106 790 l 0 790 l 78 972 m 265 972 l 371 972 l 293 790 l 188 790 l 265 972 z "},"Á":{"ha":957,"x_min":0,"x_max":819,"o":"m 489 1219 l 564 1219 l 403 1029 l 328 1029 l 489 1219 m 410 972 l 463 847 l 818 0 l 713 0 l 651 146 l 167 146 l 106 0 l 0 0 l 410 972 m 410 722 l 208 243 l 611 243 l 410 722 z "},"Â":{"ha":957,"x_min":0,"x_max":819,"o":"m 406 1219 l 575 1029 l 497 1029 l 407 1132 l 319 1029 l 244 1029 l 406 1219 m 410 972 l 463 847 l 818 0 l 713 0 l 651 146 l 167 146 l 106 0 l 0 0 l 410 972 m 410 722 l 208 243 l 611 243 l 410 722 z "},"À":{"ha":957,"x_min":0,"x_max":819,"o":"m 236 1219 l 311 1219 l 472 1029 l 397 1029 l 236 1219 m 410 972 l 463 847 l 818 0 l 713 0 l 651 146 l 167 146 l 106 0 l 0 0 l 410 972 m 410 722 l 208 243 l 611 243 l 410 722 z "},"Ä":{"ha":957,"x_min":0,"x_max":819,"o":"m 317 1181 q 369 1144 356 1181 q 374 1124 372 1133 q 336 1072 374 1086 q 317 1068 326 1068 q 265 1104 278 1068 q 261 1124 261 1115 q 297 1176 261 1163 q 317 1181 307 1181 m 490 1181 q 543 1144 529 1181 q 547 1124 546 1133 q 510 1072 547 1086 q 490 1068 500 1068 q 439 1104 451 1068 q 435 1124 435 1115 q 471 1176 435 1163 q 490 1181 481 1181 m 410 972 l 463 847 l 818 0 l 713 0 l 651 146 l 167 146 l 106 0 l 0 0 l 410 972 m 410 722 l 208 243 l 611 243 l 410 722 z "},"Ã":{"ha":957,"x_min":0,"x_max":819,"o":"m 333 1181 q 340 1181 338 1181 q 356 1178 347 1179 q 370 1174 365 1176 q 385 1168 375 1172 q 397 1163 394 1164 q 410 1155 399 1161 q 422 1149 422 1149 q 479 1126 463 1126 q 519 1158 501 1126 q 522 1161 521 1160 l 572 1132 q 479 1068 535 1068 q 393 1097 446 1069 q 336 1122 351 1121 q 304 1103 318 1124 q 300 1094 301 1099 l 249 1124 q 333 1181 282 1179 m 410 972 l 463 847 l 818 0 l 713 0 l 651 146 l 167 146 l 106 0 l 0 0 l 410 972 m 410 722 l 208 243 l 611 243 l 410 722 z "},"Å":{"ha":957,"x_min":0,"x_max":819,"o":"m 410 1236 q 506 1181 472 1236 q 521 1124 521 1154 q 465 1028 521 1061 q 410 1013 439 1013 q 314 1068 346 1013 q 297 1124 299 1094 q 353 1221 297 1188 q 410 1236 379 1236 m 410 1178 q 358 1142 371 1178 q 356 1124 357 1133 q 392 1074 356 1086 q 410 1071 401 1071 q 460 1107 447 1071 q 463 1124 463 1115 q 426 1175 463 1163 q 410 1178 418 1178 m 410 972 l 463 847 l 818 0 l 713 0 l 651 146 l 167 146 l 106 0 l 0 0 l 410 972 m 410 722 l 208 243 l 611 243 l 410 722 z "},"Æ":{"ha":1235,"x_min":0,"x_max":1097,"o":"m 542 972 l 639 972 l 1097 972 l 1097 875 l 639 875 l 639 375 l 1025 375 l 1025 278 l 639 278 l 639 97 l 1097 97 l 1097 0 l 639 0 l 542 0 l 542 146 l 193 146 l 111 0 l 0 0 l 542 972 m 542 772 l 247 243 l 542 243 l 542 772 z "},"Ç":{"ha":965,"x_min":0,"x_max":828,"o":"m 481 974 q 811 844 671 975 q 828 829 821 838 l 758 761 q 481 876 643 878 q 338 847 406 875 q 133 651 197 789 q 97 486 97 572 q 213 208 97 322 q 336 125 267 154 q 640 129 489 61 q 757 210 707 160 l 826 142 q 508 -1 693 10 l 508 -15 q 593 -71 565 -17 q 606 -112 604 -92 q 561 -210 611 -175 q 524 -226 544 -222 q 429 -187 467 -237 q 410 -149 415 -169 l 467 -135 q 506 -169 475 -169 q 513 -169 510 -169 q 547 -132 540 -164 q 547 -118 547 -124 q 515 -75 544 -83 q 507 -74 510 -74 l 450 -74 l 450 0 q 299 36 371 6 q 53 267 133 106 q 0 488 0 371 q 132 821 0 681 q 300 938 204 897 q 475 974 385 971 q 481 974 478 974 z "},"É":{"ha":694,"x_min":0,"x_max":556,"o":"m 407 1219 l 482 1219 l 321 1029 l 244 1029 l 407 1219 m 0 972 l 97 972 l 556 972 l 556 875 l 97 875 l 97 375 l 485 375 l 485 278 l 97 278 l 97 97 l 556 97 l 556 0 l 97 0 l 0 0 l 0 972 z "},"Ê":{"ha":694,"x_min":0,"x_max":556,"o":"m 268 1219 l 436 1029 l 360 1029 l 269 1132 l 182 1029 l 107 1029 l 268 1219 m 0 972 l 97 972 l 556 972 l 556 875 l 97 875 l 97 375 l 485 375 l 485 278 l 97 278 l 97 97 l 556 97 l 556 0 l 97 0 l 0 0 l 0 972 z "},"È":{"ha":694,"x_min":0,"x_max":556,"o":"m 122 1219 l 199 1219 l 360 1029 l 283 1029 l 122 1219 m 0 972 l 97 972 l 556 972 l 556 875 l 97 875 l 97 375 l 485 375 l 485 278 l 97 278 l 97 97 l 556 97 l 556 0 l 97 0 l 0 0 l 0 972 z "},"Ë":{"ha":694,"x_min":0,"x_max":556,"o":"m 206 1181 q 258 1144 244 1181 q 261 1124 261 1133 q 225 1072 261 1086 q 206 1068 215 1068 q 153 1104 167 1068 q 150 1124 150 1115 q 186 1176 150 1163 q 206 1181 196 1181 m 379 1181 q 432 1144 418 1181 q 435 1124 435 1133 q 399 1072 435 1086 q 379 1068 389 1068 q 326 1104 340 1068 q 324 1124 324 1114 q 360 1176 324 1163 q 379 1181 369 1181 m 0 972 l 97 972 l 556 972 l 556 875 l 97 875 l 97 375 l 485 375 l 485 278 l 97 278 l 97 97 l 556 97 l 556 0 l 97 0 l 0 0 l 0 972 z "},"Ì":{"ha":235,"x_min":-74,"x_max":164,"o":"m -74 1219 l 1 1219 l 163 1029 l 88 1029 l -74 1219 m -1 972 l 96 972 l 96 0 l -1 0 l -1 972 z "},"Í":{"ha":236,"x_min":-39,"x_max":199,"o":"m 122 1219 l 197 1219 l 36 1029 l -39 1029 l 122 1219 m 0 972 l 97 972 l 97 0 l 0 0 l 0 972 z "},"Î":{"ha":236,"x_min":-117,"x_max":214,"o":"m 44 1219 l 214 1029 l 136 1029 l 46 1132 l -42 1029 l -117 1029 l 44 1219 m 0 972 l 97 972 l 97 0 l 0 0 l 0 972 z "},"Ï":{"ha":236,"x_min":-90,"x_max":196,"o":"m -35 1181 q 18 1144 4 1181 q 22 1124 21 1133 q -15 1072 22 1086 q -35 1068 -25 1068 q -86 1104 -74 1068 q -90 1124 -90 1115 q -54 1176 -90 1163 q -35 1181 -43 1181 m 139 1181 q 192 1144 178 1181 q 196 1124 194 1133 q 158 1072 196 1086 q 139 1068 149 1068 q 88 1104 100 1068 q 83 1124 83 1115 q 119 1176 83 1163 q 139 1181 131 1181 m 0 972 l 97 972 l 97 0 l 0 0 l 0 972 z "},"Ñ":{"ha":843,"x_min":0,"x_max":706,"o":"m 258 1181 q 265 1181 261 1181 q 347 1149 294 1178 q 404 1126 388 1126 q 444 1158 426 1126 q 447 1161 446 1160 l 497 1132 q 404 1068 458 1068 q 318 1097 371 1069 q 261 1122 276 1121 q 229 1103 243 1124 q 224 1094 226 1099 l 174 1124 q 258 1181 207 1179 m 607 972 l 704 972 l 704 0 l 607 114 l 97 710 l 97 0 l 0 0 l 0 972 l 97 858 l 607 263 l 607 972 z "},"Ó":{"ha":1103,"x_min":0,"x_max":965,"o":"m 525 1219 l 601 1219 l 440 1029 l 364 1029 l 525 1219 m 482 972 q 818 836 678 972 q 965 507 957 700 q 965 486 965 496 q 829 149 965 290 q 504 0 696 8 q 482 0 493 0 q 147 136 288 0 q 0 465 8 272 q 0 486 0 476 q 136 824 0 682 q 461 972 269 964 q 482 972 472 972 m 482 875 q 204 756 318 875 q 97 486 97 642 q 217 206 97 319 q 482 97 329 97 q 761 217 647 97 q 868 486 868 331 q 749 767 868 653 q 482 875 636 875 z "},"Ô":{"ha":1103,"x_min":0,"x_max":965,"o":"m 479 1219 l 647 1029 l 571 1029 l 481 1132 l 393 1029 l 318 1029 l 479 1219 m 482 972 q 818 836 678 972 q 965 507 957 700 q 965 486 965 496 q 829 149 965 290 q 504 0 696 8 q 482 0 493 0 q 147 136 288 0 q 0 465 8 272 q 0 486 0 476 q 136 824 0 682 q 461 972 269 964 q 482 972 472 972 m 482 875 q 204 756 318 875 q 97 486 97 642 q 217 206 97 319 q 482 97 329 97 q 761 217 647 97 q 868 486 868 331 q 749 767 868 653 q 482 875 636 875 z "},"Ò":{"ha":1103,"x_min":0,"x_max":965,"o":"m 364 1219 l 440 1219 l 601 1029 l 525 1029 l 364 1219 m 482 972 q 818 836 678 972 q 965 507 957 700 q 965 486 965 496 q 829 149 965 290 q 504 0 696 8 q 482 0 493 0 q 147 136 288 0 q 0 465 8 272 q 0 486 0 476 q 136 824 0 682 q 461 972 269 964 q 482 972 472 972 m 482 875 q 204 756 318 875 q 97 486 97 642 q 217 206 97 319 q 482 97 329 97 q 761 217 647 97 q 868 486 868 331 q 749 767 868 653 q 482 875 636 875 z "},"Õ":{"ha":1103,"x_min":0,"x_max":965,"o":"m 406 1181 q 413 1181 410 1181 q 428 1178 419 1179 q 442 1174 436 1176 q 457 1168 447 1172 q 469 1163 467 1164 q 482 1155 471 1161 q 494 1149 493 1149 q 551 1126 535 1126 q 592 1158 574 1126 q 594 1161 593 1160 l 644 1132 q 551 1068 606 1068 q 465 1097 518 1069 q 408 1122 424 1121 q 376 1103 390 1124 q 371 1094 374 1099 l 321 1124 q 406 1181 354 1179 m 482 972 q 818 836 678 972 q 965 507 957 700 q 965 486 965 496 q 829 149 965 290 q 504 0 696 8 q 482 0 493 0 q 147 136 288 0 q 0 465 8 272 q 0 486 0 475 q 136 824 0 682 q 461 972 269 964 q 482 972 472 972 m 482 875 q 204 756 318 875 q 97 486 97 643 q 217 206 97 319 q 482 97 329 97 q 761 217 647 97 q 868 486 868 331 q 749 767 868 653 q 482 875 636 875 z "},"Ö":{"ha":1103,"x_min":0,"x_max":965,"o":"m 396 1181 q 449 1144 435 1181 q 451 1124 451 1133 q 415 1072 451 1086 q 396 1068 406 1068 q 343 1104 357 1068 q 340 1124 340 1114 q 376 1176 340 1163 q 396 1181 386 1181 m 569 1181 q 622 1144 608 1181 q 625 1124 625 1133 q 589 1072 625 1086 q 569 1068 579 1068 q 517 1104 531 1068 q 514 1124 514 1115 q 550 1176 514 1163 q 569 1181 560 1181 m 482 972 q 818 836 678 972 q 965 507 957 700 q 965 486 965 496 q 829 149 965 290 q 504 0 696 8 q 482 0 493 0 q 147 136 288 0 q 0 465 8 272 q 0 486 0 476 q 136 824 0 682 q 461 972 269 964 q 482 972 472 972 m 482 875 q 204 756 318 875 q 97 486 97 642 q 217 206 97 319 q 482 97 329 97 q 761 217 647 97 q 868 486 868 331 q 749 767 868 653 q 482 875 636 875 z "},"Ø":{"ha":1103,"x_min":0,"x_max":965,"o":"m 793 972 l 915 972 l 814 839 q 964 514 954 706 q 965 486 965 499 q 829 149 965 290 q 504 0 696 8 q 482 0 493 0 q 228 74 344 1 l 172 0 l 50 0 l 151 133 q 1 458 11 267 q 0 486 0 474 q 136 824 0 682 q 461 972 269 964 q 482 972 472 972 q 738 899 621 971 l 793 972 m 482 875 q 204 756 318 875 q 97 486 97 642 q 211 210 99 324 l 678 822 q 482 875 588 875 m 754 763 l 288 150 q 482 97 378 97 q 761 217 647 97 q 868 486 868 331 q 754 763 867 649 z "},"Œ":{"ha":1176,"x_min":0,"x_max":1039,"o":"m 482 972 l 482 972 l 579 972 l 1038 972 l 1038 875 l 579 875 l 579 375 l 967 375 l 967 278 l 579 278 l 579 97 l 1038 97 l 1038 0 l 579 0 l 482 0 q 147 136 288 0 q 0 465 8 272 q 0 486 0 476 q 136 824 0 682 q 461 972 269 964 q 482 972 472 972 m 482 875 q 204 756 318 875 q 97 486 97 642 q 217 206 97 319 q 482 97 329 97 l 482 875 z "},"š":{"ha":833,"x_min":0,"x_max":696,"o":"m 182 1219 l 258 1219 l 344 1117 l 436 1219 l 513 1219 l 344 1029 l 182 1219 m 351 974 q 682 843 542 974 q 694 829 689 836 l 626 761 q 351 876 511 876 l 351 876 q 121 760 175 876 q 104 681 104 722 q 147 588 104 617 q 169 575 157 581 q 358 525 218 550 q 574 463 510 499 q 576 461 575 461 q 692 282 681 401 q 693 254 693 268 q 592 69 693 142 q 581 63 586 65 q 344 0 483 0 q 14 131 153 0 q 0 144 6 138 l 69 213 q 344 97 183 97 q 529 144 456 97 q 596 254 596 189 q 549 364 596 329 q 529 376 539 371 q 342 429 478 406 q 138 482 193 456 q 125 488 131 486 q 10 643 28 539 q 7 681 7 663 q 106 890 7 806 q 351 974 203 974 z "},"Š":{"ha":833,"x_min":0,"x_max":696,"o":"m 182 1219 l 258 1219 l 344 1117 l 436 1219 l 513 1219 l 344 1029 l 182 1219 m 351 974 q 682 843 542 974 q 694 829 689 836 l 626 761 q 351 876 511 876 l 351 876 q 121 760 175 876 q 104 681 104 722 q 147 588 104 617 q 169 575 157 581 q 358 525 218 550 q 574 463 510 499 q 576 461 575 461 q 692 282 681 401 q 693 254 693 268 q 592 69 693 142 q 581 63 586 65 q 344 0 483 0 q 14 131 153 0 q 0 144 6 138 l 69 213 q 344 97 183 97 q 529 144 456 97 q 596 254 596 189 q 549 364 596 329 q 529 376 539 371 q 342 429 478 406 q 138 482 193 456 q 125 488 131 486 q 10 643 28 539 q 7 681 7 663 q 106 890 7 806 q 351 974 203 974 z "},"Ü":{"ha":790,"x_min":0,"x_max":653,"o":"m 239 1181 q 292 1144 278 1181 q 296 1124 296 1133 q 260 1072 296 1086 q 239 1068 249 1068 q 188 1104 201 1068 q 183 1124 183 1115 q 219 1176 183 1163 q 239 1181 231 1181 m 413 1181 q 465 1144 451 1181 q 469 1124 469 1133 q 433 1072 469 1086 q 413 1068 422 1068 q 361 1104 375 1068 q 357 1124 357 1115 q 393 1176 357 1163 q 413 1181 404 1181 m 0 972 l 97 972 l 97 322 q 183 146 97 214 q 326 97 247 97 q 508 185 439 97 q 556 322 556 246 l 556 972 l 653 972 l 653 322 q 546 83 653 181 q 326 0 451 0 q 85 106 182 0 q 0 322 0 199 l 0 972 z "},"Ú":{"ha":790,"x_min":0,"x_max":653,"o":"m 439 1219 l 515 1219 l 353 1029 l 278 1029 l 439 1219 m 0 972 l 97 972 l 97 322 q 183 146 97 214 q 326 97 247 97 q 508 185 439 97 q 556 322 556 246 l 556 972 l 653 972 l 653 322 q 546 83 653 181 q 326 0 451 0 q 85 106 182 0 q 0 322 0 199 l 0 972 z "},"Û":{"ha":790,"x_min":0,"x_max":653,"o":"m 322 1219 l 492 1029 l 414 1029 l 324 1132 l 236 1029 l 161 1029 l 322 1219 m 0 972 l 97 972 l 97 322 q 183 146 97 214 q 326 97 247 97 q 508 185 439 97 q 556 322 556 246 l 556 972 l 653 972 l 653 322 q 546 83 653 181 q 326 0 451 0 q 85 106 182 0 q 0 322 0 199 l 0 972 z "},"Ù":{"ha":790,"x_min":0,"x_max":653,"o":"m 160 1219 l 236 1219 l 397 1029 l 322 1029 l 160 1219 m 0 972 l 97 972 l 97 322 q 183 146 97 214 q 326 97 247 97 q 508 185 439 97 q 556 322 556 246 l 556 972 l 653 972 l 653 322 q 546 83 653 181 q 326 0 451 0 q 85 106 182 0 q 0 322 0 199 l 0 972 z "},"Ý":{"ha":826,"x_min":0,"x_max":689,"o":"m 460 1219 l 535 1219 l 374 1029 l 297 1029 l 460 1219 m 0 972 l 107 972 l 344 465 l 581 972 l 688 972 l 397 351 l 393 340 l 393 0 l 296 0 l 296 340 l 290 351 l 0 972 z "},"Ÿ":{"ha":826,"x_min":0,"x_max":689,"o":"m 257 1181 q 310 1144 296 1181 q 313 1124 313 1133 q 276 1072 313 1086 q 257 1068 267 1068 q 204 1104 218 1068 q 201 1124 201 1115 q 238 1176 201 1163 q 257 1181 247 1181 m 431 1181 q 483 1144 469 1181 q 486 1124 486 1133 q 450 1072 486 1086 q 431 1068 440 1068 q 378 1104 392 1068 q 375 1124 375 1115 q 411 1176 375 1163 q 431 1181 421 1181 m 0 972 l 107 972 l 344 465 l 581 972 l 688 972 l 397 351 l 393 340 l 393 0 l 296 0 l 296 340 l 290 351 l 0 972 z "},"ž":{"ha":733,"x_min":0,"x_max":596,"o":"m 133 1219 l 208 1219 l 294 1117 l 386 1219 l 463 1219 l 294 1029 l 133 1219 m 488 972 l 596 972 l 547 875 l 157 97 l 556 97 l 556 0 l 108 0 l 0 0 l 0 1 l 49 97 l 438 875 l 40 875 l 40 972 l 488 972 z "},"Ž":{"ha":733,"x_min":0,"x_max":596,"o":"m 133 1219 l 208 1219 l 294 1117 l 386 1219 l 463 1219 l 294 1029 l 133 1219 m 488 972 l 596 972 l 547 875 l 157 97 l 556 97 l 556 0 l 108 0 l 0 0 l 0 1 l 49 97 l 438 875 l 40 875 l 40 972 l 488 972 z "},"á":{"ha":864,"x_min":-7,"x_max":726,"o":"m 506 1219 l 581 1219 l 419 1029 l 344 1029 l 506 1219 m 361 972 l 361 972 q 367 972 364 972 q 479 953 425 971 q 686 774 618 906 q 726 607 726 694 l 726 0 l 629 0 l 629 114 q 369 -3 524 0 q 344 -3 357 -3 q 89 124 190 6 q 0 379 -6 236 q 126 639 7 536 q 360 729 228 726 q 378 728 369 729 q 629 611 528 721 q 532 814 626 735 q 447 861 493 844 q 221 833 328 901 q 151 769 181 807 l 74 828 q 317 969 165 950 q 361 972 340 972 m 360 632 q 158 535 236 631 q 97 375 101 464 q 185 164 92 249 q 350 94 256 100 q 558 181 475 89 q 629 349 622 253 l 629 353 q 539 564 633 481 q 374 631 468 626 q 360 632 367 632 z "},"â":{"ha":864,"x_min":-7,"x_max":726,"o":"m 347 1219 l 515 1029 l 439 1029 l 347 1132 l 261 1029 l 186 1029 l 347 1219 m 361 972 l 361 972 q 367 972 364 972 q 479 953 425 971 q 686 774 618 906 q 726 607 726 694 l 726 0 l 629 0 l 629 114 q 369 -3 524 0 q 344 -3 357 -3 q 89 124 190 6 q 0 379 -6 236 q 126 639 7 536 q 360 729 228 726 q 378 728 369 729 q 629 611 528 721 q 532 814 626 735 q 447 861 493 844 q 221 833 328 901 q 151 769 181 807 l 74 828 q 317 969 165 950 q 361 972 340 972 m 360 632 q 158 535 236 631 q 97 375 101 464 q 185 164 92 249 q 350 94 256 100 q 558 181 475 89 q 629 349 622 253 l 629 353 q 539 564 633 481 q 374 631 468 626 q 360 632 367 632 z "},"à":{"ha":864,"x_min":-7,"x_max":726,"o":"m 243 1219 l 318 1219 l 481 1029 l 404 1029 l 243 1219 m 361 972 l 361 972 q 367 972 364 972 q 479 953 425 971 q 686 774 618 906 q 726 607 726 694 l 726 0 l 629 0 l 629 114 q 369 -3 524 0 q 344 -3 357 -3 q 89 124 190 6 q 0 379 -6 236 q 126 639 7 536 q 360 729 228 726 q 378 728 369 729 q 629 611 528 721 q 532 814 626 735 q 447 861 493 844 q 221 833 328 901 q 151 769 181 807 l 74 828 q 317 969 165 950 q 361 972 340 972 m 360 632 q 158 535 236 631 q 97 375 101 464 q 185 164 92 249 q 350 94 256 100 q 558 181 475 89 q 629 349 622 253 l 629 353 q 539 564 633 481 q 374 631 468 626 q 360 632 367 632 z "},"ä":{"ha":864,"x_min":-7,"x_max":726,"o":"m 276 1181 q 329 1144 315 1181 q 332 1124 332 1133 q 296 1072 332 1086 q 276 1068 286 1068 q 224 1104 238 1068 q 221 1124 221 1115 q 257 1176 221 1163 q 276 1181 267 1181 m 450 1181 q 503 1144 489 1181 q 506 1124 506 1133 q 469 1072 506 1086 q 450 1068 460 1068 q 397 1104 411 1068 q 394 1124 394 1115 q 431 1176 394 1163 q 450 1181 440 1181 m 361 972 l 361 972 q 367 972 364 972 q 479 953 425 971 q 686 774 618 906 q 726 607 726 694 l 726 0 l 629 0 l 629 114 q 369 -3 524 0 q 344 -3 357 -3 q 89 124 190 6 q 0 379 -6 236 q 126 639 7 536 q 360 729 228 726 q 378 728 369 729 q 629 611 528 721 q 532 814 626 735 q 447 861 493 844 q 221 833 328 901 q 151 769 181 807 l 74 828 q 317 969 165 950 q 361 972 340 972 m 360 632 q 158 535 236 631 q 97 375 101 464 q 185 164 92 249 q 350 94 256 100 q 558 181 475 89 q 629 349 622 253 l 629 353 q 539 564 633 481 q 374 631 468 626 q 360 632 367 632 z "},"å":{"ha":864,"x_min":-7,"x_max":726,"o":"m 363 1236 q 460 1181 426 1236 q 475 1124 475 1154 q 419 1028 475 1061 q 363 1013 393 1013 q 267 1068 300 1013 q 251 1124 251 1094 q 307 1221 251 1188 q 363 1236 333 1236 m 363 1178 q 313 1142 325 1178 q 310 1124 310 1133 q 346 1074 310 1086 q 363 1071 354 1071 q 414 1107 401 1071 q 417 1124 417 1115 q 381 1175 417 1163 q 363 1178 371 1178 m 361 972 l 361 972 q 367 972 364 972 q 479 953 425 971 q 686 774 618 906 q 726 607 726 694 l 726 0 l 629 0 l 629 114 q 369 -3 524 0 q 344 -3 357 -3 q 89 124 190 6 q 0 379 -6 236 q 126 639 7 536 q 360 729 228 726 q 378 728 369 729 q 629 611 528 721 q 532 814 626 735 q 447 861 493 844 q 221 833 328 901 q 151 769 181 807 l 74 828 q 317 969 165 950 q 361 972 340 972 m 360 632 q 158 535 236 631 q 97 375 101 464 q 185 164 92 249 q 350 94 256 100 q 558 181 475 89 q 629 349 622 253 l 629 353 q 539 564 633 481 q 374 631 468 626 q 360 632 367 632 z "},"ã":{"ha":864,"x_min":-7,"x_max":726,"o":"m 286 1181 q 293 1181 290 1181 q 375 1149 322 1178 q 432 1126 415 1126 q 472 1158 453 1126 q 475 1161 474 1160 l 525 1132 q 432 1068 486 1068 q 346 1097 399 1069 q 288 1122 303 1121 q 257 1103 271 1124 q 251 1094 254 1099 l 201 1124 q 286 1181 235 1179 m 361 972 l 361 972 q 367 972 364 972 q 479 953 425 971 q 686 774 618 906 q 726 607 726 694 l 726 0 l 629 0 l 629 114 q 369 -3 524 0 q 344 -3 357 -3 q 89 124 190 6 q 0 379 -6 236 q 126 639 7 536 q 360 729 228 726 q 378 728 369 729 q 629 611 528 721 q 532 814 626 735 q 447 861 493 844 q 221 833 328 901 q 151 769 181 807 l 74 828 q 317 969 165 950 q 361 972 340 972 m 360 632 q 158 535 236 631 q 97 375 101 464 q 185 164 92 249 q 350 94 256 100 q 558 181 475 89 q 629 349 622 253 l 629 353 q 539 564 633 481 q 374 631 468 626 q 360 632 367 632 z "},"æ":{"ha":1733,"x_min":-7,"x_max":1607,"o":"m 1111 972 q 1121 972 1117 972 q 1210 963 1167 971 q 1504 769 1393 924 q 1594 449 1606 625 l 1593 446 l 726 446 q 864 185 742 286 q 938 136 899 156 q 1244 118 1088 60 q 1431 265 1361 163 l 1513 211 q 1225 11 1407 56 q 894 49 1051 -31 q 726 189 793 101 l 726 0 l 629 0 l 629 114 q 369 -3 524 0 q 344 -3 357 -3 q 89 124 190 6 q 0 379 -6 235 q 126 639 7 536 q 360 729 228 726 q 378 728 369 729 q 629 611 528 721 q 532 814 626 735 q 447 861 493 844 q 221 833 328 901 q 151 769 181 807 l 74 828 q 317 969 165 950 q 361 972 340 972 q 367 972 364 972 q 479 953 425 971 q 686 775 618 906 q 700 742 694 758 q 968 950 796 896 q 1111 972 1039 972 m 1110 875 q 836 760 949 875 q 746 613 775 696 q 729 543 735 578 l 1493 543 q 1346 796 1471 700 q 1190 867 1275 849 q 1110 875 1149 875 m 360 632 q 158 535 236 631 q 97 375 101 464 q 185 164 92 249 q 350 94 256 100 q 558 181 475 89 q 629 349 622 253 l 629 353 q 539 564 633 481 q 374 631 468 626 q 360 632 367 632 z "},"é":{"ha":1106,"x_min":-33,"x_max":979,"o":"m 633 1219 l 710 1219 l 549 1029 l 472 1029 l 633 1219 m 483 972 q 493 972 489 972 q 582 963 539 971 q 876 769 767 924 q 967 449 979 625 l 967 446 l 99 446 q 238 185 115 286 q 311 136 272 156 q 618 118 461 60 q 804 265 735 163 l 885 211 q 597 11 781 56 q 267 49 425 -31 q 35 303 104 132 q 26 644 -32 472 q 249 910 88 819 q 483 972 360 972 m 482 875 q 208 760 322 875 q 119 613 147 696 q 101 543 107 578 l 867 543 q 718 796 843 700 q 563 867 647 849 q 482 875 522 875 z "},"ê":{"ha":1106,"x_min":-33,"x_max":979,"o":"m 499 1219 l 667 1029 l 590 1029 l 500 1132 l 413 1029 l 338 1029 l 499 1219 m 483 972 q 493 972 489 972 q 582 963 539 971 q 876 769 767 924 q 967 449 979 625 l 967 446 l 99 446 q 238 185 115 286 q 311 136 272 156 q 618 118 461 60 q 804 265 735 163 l 885 211 q 597 11 781 56 q 267 49 425 -31 q 35 303 104 132 q 26 644 -32 472 q 249 910 88 819 q 483 972 360 972 m 482 875 q 208 760 322 875 q 119 613 147 696 q 101 543 107 578 l 867 543 q 718 796 843 700 q 563 867 647 849 q 482 875 522 875 z "},"è":{"ha":1106,"x_min":-33,"x_max":981,"o":"m 297 1219 l 374 1219 l 535 1029 l 458 1029 l 297 1219 m 483 972 q 493 972 489 972 q 582 963 539 971 q 876 769 767 924 q 967 449 979 625 l 967 446 l 99 446 q 238 185 115 286 q 311 136 272 156 q 618 118 461 60 q 804 265 735 163 l 885 211 q 597 11 781 56 q 267 49 425 -31 q 35 303 104 132 q 26 644 -32 472 q 249 910 88 819 q 483 972 360 972 m 482 875 q 208 760 322 875 q 119 613 147 696 q 101 543 107 578 l 867 543 q 718 796 843 700 q 563 867 647 849 q 482 875 522 875 z "},"ë":{"ha":1106,"x_min":-33,"x_max":981,"o":"m 397 1181 q 450 1144 436 1181 q 453 1124 453 1133 q 417 1072 453 1086 q 397 1068 407 1068 q 344 1104 358 1068 q 342 1124 342 1115 q 378 1176 342 1163 q 397 1181 388 1181 m 571 1181 q 624 1144 610 1181 q 626 1124 626 1133 q 590 1072 626 1086 q 571 1068 581 1068 q 518 1104 532 1068 q 515 1124 515 1115 q 551 1176 515 1163 q 571 1181 561 1181 m 483 972 q 493 972 489 972 q 582 963 539 971 q 876 769 767 924 q 967 449 979 625 l 967 446 l 99 446 q 238 185 115 286 q 311 136 272 156 q 618 118 461 60 q 804 265 735 163 l 885 211 q 597 11 781 56 q 267 49 425 -31 q 35 303 104 132 q 26 644 -32 472 q 249 910 88 819 q 483 972 360 972 m 482 875 q 208 760 322 875 q 119 613 147 696 q 101 543 107 578 l 867 543 q 718 796 843 700 q 563 867 647 849 q 482 875 522 875 z "},"ñ":{"ha":833,"x_min":0,"x_max":696,"o":"m 271 1181 q 276 1181 274 1181 q 358 1149 306 1178 q 417 1126 399 1126 q 457 1158 438 1126 q 458 1161 458 1160 l 508 1132 q 415 1068 471 1068 q 331 1097 382 1069 q 272 1122 288 1121 q 242 1103 254 1124 q 236 1094 239 1099 l 186 1124 q 271 1181 219 1179 m 0 972 l 97 972 l 97 872 q 347 972 201 971 q 604 865 500 972 q 694 644 694 771 l 694 0 l 597 0 l 597 644 q 506 822 597 754 q 347 875 436 875 q 150 786 225 875 q 97 644 97 724 l 97 0 l 0 0 l 0 644 l 0 972 z "},"œ":{"ha":1835,"x_min":0,"x_max":1708,"o":"m 1213 972 q 1222 972 1218 972 q 1311 963 1267 971 q 1606 769 1494 924 q 1694 449 1708 625 l 1694 446 l 828 446 q 965 185 843 286 q 1039 136 1000 156 q 1346 118 1189 60 q 1532 265 1463 163 l 1613 211 q 1326 11 1508 56 q 994 49 1153 -31 q 846 167 908 94 q 533 3 721 22 q 483 0 508 0 q 147 136 288 0 q 0 465 8 272 q 0 486 0 476 q 136 824 0 682 q 461 972 269 964 q 483 972 472 972 q 817 836 676 972 q 847 804 833 819 q 1153 968 969 946 q 1213 972 1183 972 m 1211 875 q 938 760 1050 875 q 847 613 876 696 q 831 543 835 578 l 1594 543 q 1446 796 1572 700 q 1290 867 1376 849 q 1211 875 1250 875 m 483 875 q 204 756 318 875 q 97 486 97 642 q 217 206 97 319 q 483 97 329 97 q 761 217 647 97 q 789 250 776 232 q 746 613 694 422 q 756 644 750 629 q 789 722 769 686 q 536 871 693 850 q 483 875 508 875 z "},"ò":{"ha":1103,"x_min":0,"x_max":965,"o":"m 525 1219 l 601 1219 l 440 1029 l 364 1029 l 525 1219 m 482 972 q 818 836 678 972 q 965 507 957 700 q 965 486 965 496 q 829 149 965 290 q 504 0 696 8 q 482 0 493 0 q 147 136 288 0 q 0 465 8 272 q 0 486 0 476 q 136 824 0 682 q 461 972 269 964 q 482 972 472 972 m 482 875 q 204 756 318 875 q 97 486 97 642 q 217 206 97 319 q 482 97 329 97 q 761 217 647 97 q 868 486 868 331 q 749 767 868 653 q 482 875 636 875 z "},"ó":{"ha":1103,"x_min":0,"x_max":965,"o":"m 479 1219 l 647 1029 l 571 1029 l 481 1132 l 393 1029 l 318 1029 l 479 1219 m 482 972 q 818 836 678 972 q 965 507 957 700 q 965 486 965 496 q 829 149 965 290 q 504 0 696 8 q 482 0 493 0 q 147 136 288 0 q 0 465 8 272 q 0 486 0 476 q 136 824 0 682 q 461 972 269 964 q 482 972 472 972 m 482 875 q 204 756 318 875 q 97 486 97 642 q 217 206 97 319 q 482 97 329 97 q 761 217 647 97 q 868 486 868 331 q 749 767 868 653 q 482 875 636 875 z "},"ô":{"ha":1103,"x_min":0,"x_max":965,"o":"m 364 1219 l 440 1219 l 601 1029 l 525 1029 l 364 1219 m 482 972 q 818 836 678 972 q 965 507 957 700 q 965 486 965 496 q 829 149 965 290 q 504 0 696 8 q 482 0 493 0 q 147 136 288 0 q 0 465 8 272 q 0 486 0 476 q 136 824 0 682 q 461 972 269 964 q 482 972 472 972 m 482 875 q 204 756 318 875 q 97 486 97 642 q 217 206 97 319 q 482 97 329 97 q 761 217 647 97 q 868 486 868 331 q 749 767 868 653 q 482 875 636 875 z "},"õ":{"ha":1103,"x_min":0,"x_max":965,"o":"m 406 1181 q 413 1181 410 1181 q 428 1178 419 1179 q 442 1174 436 1176 q 457 1168 447 1172 q 469 1163 467 1164 q 482 1155 471 1161 q 494 1149 493 1149 q 551 1126 535 1126 q 592 1158 574 1126 q 594 1161 593 1160 l 644 1132 q 551 1068 606 1068 q 465 1097 518 1069 q 408 1122 424 1121 q 376 1103 390 1124 q 371 1094 374 1099 l 321 1124 q 406 1181 354 1179 m 482 972 q 818 836 678 972 q 965 507 957 700 q 965 486 965 496 q 829 149 965 290 q 504 0 696 8 q 482 0 493 0 q 147 136 288 0 q 0 465 8 272 q 0 486 0 475 q 136 824 0 682 q 461 972 269 964 q 482 972 472 972 m 482 875 q 204 756 318 875 q 97 486 97 643 q 217 206 97 319 q 482 97 329 97 q 761 217 647 97 q 868 486 868 331 q 749 767 868 653 q 482 875 636 875 z "},"ö":{"ha":1103,"x_min":0,"x_max":965,"o":"m 396 1181 q 449 1144 435 1181 q 451 1124 451 1133 q 415 1072 451 1086 q 396 1068 406 1068 q 343 1104 357 1068 q 340 1124 340 1114 q 376 1176 340 1163 q 396 1181 386 1181 m 569 1181 q 622 1144 608 1181 q 625 1124 625 1133 q 589 1072 625 1086 q 569 1068 579 1068 q 517 1104 531 1068 q 514 1124 514 1115 q 550 1176 514 1163 q 569 1181 560 1181 m 482 972 q 818 836 678 972 q 965 507 957 700 q 965 486 965 496 q 829 149 965 290 q 504 0 696 8 q 482 0 493 0 q 147 136 288 0 q 0 465 8 272 q 0 486 0 476 q 136 824 0 682 q 461 972 269 964 q 482 972 472 972 m 482 875 q 204 756 318 875 q 97 486 97 642 q 217 206 97 319 q 482 97 329 97 q 761 217 647 97 q 868 486 868 331 q 749 767 868 653 q 482 875 636 875 z "},"ù":{"ha":790,"x_min":0,"x_max":653,"o":"m 160 1219 l 236 1219 l 397 1029 l 322 1029 l 160 1219 m 0 972 l 97 972 l 97 322 q 183 146 97 214 q 326 97 247 97 q 508 185 439 97 q 556 322 556 246 l 556 972 l 653 972 l 653 322 q 546 83 653 181 q 326 0 451 0 q 85 106 182 0 q 0 322 0 199 l 0 972 z "},"ú":{"ha":790,"x_min":0,"x_max":653,"o":"m 439 1219 l 515 1219 l 353 1029 l 278 1029 l 439 1219 m 0 972 l 97 972 l 97 322 q 183 146 97 214 q 326 97 247 97 q 508 185 439 97 q 556 322 556 246 l 556 972 l 653 972 l 653 322 q 546 83 653 181 q 326 0 451 0 q 85 106 182 0 q 0 322 0 199 l 0 972 z "},"û":{"ha":790,"x_min":0,"x_max":653,"o":"m 322 1219 l 492 1029 l 414 1029 l 324 1132 l 236 1029 l 161 1029 l 322 1219 m 0 972 l 97 972 l 97 322 q 183 146 97 214 q 326 97 247 97 q 508 185 439 97 q 556 322 556 246 l 556 972 l 653 972 l 653 322 q 546 83 653 181 q 326 0 451 0 q 85 106 182 0 q 0 322 0 199 l 0 972 z "},"ü":{"ha":790,"x_min":0,"x_max":653,"o":"m 239 1181 q 292 1144 278 1181 q 296 1124 296 1133 q 260 1072 296 1086 q 239 1068 249 1068 q 188 1104 201 1068 q 183 1124 183 1115 q 219 1176 183 1163 q 239 1181 231 1181 m 413 1181 q 465 1144 451 1181 q 469 1124 469 1133 q 433 1072 469 1086 q 413 1068 422 1068 q 361 1104 375 1068 q 357 1124 357 1115 q 393 1176 357 1163 q 413 1181 404 1181 m 0 972 l 97 972 l 97 322 q 183 146 97 214 q 326 97 247 97 q 508 185 439 97 q 556 322 556 246 l 556 972 l 653 972 l 653 322 q 546 83 653 181 q 326 0 451 0 q 85 106 182 0 q 0 322 0 199 l 0 972 z "},"ø":{"ha":1103,"x_min":0,"x_max":965,"o":"m 793 972 l 915 972 l 814 839 q 964 514 954 706 q 965 486 965 499 q 829 149 965 290 q 504 0 696 8 q 482 0 493 0 q 228 74 344 1 l 172 0 l 50 0 l 151 133 q 1 458 11 267 q 0 486 0 474 q 136 824 0 682 q 461 972 269 964 q 482 972 472 972 q 738 899 621 971 l 793 972 m 482 875 q 204 756 318 875 q 97 486 97 642 q 211 210 99 324 l 678 822 q 482 875 588 875 m 754 763 l 288 150 q 482 97 378 97 q 761 217 647 97 q 868 486 868 331 q 754 763 867 649 z "},"ì":{"ha":233,"x_min":-74,"x_max":164,"o":"m -74 1219 l 1 1219 l 163 1029 l 88 1029 l -74 1219 m -1 972 l 96 972 l 96 0 l -1 0 l -1 972 z "},"í":{"ha":235,"x_min":-39,"x_max":199,"o":"m 122 1219 l 197 1219 l 36 1029 l -39 1029 l 122 1219 m 0 972 l 97 972 l 97 0 l 0 0 l 0 972 z "},"î":{"ha":235,"x_min":-117,"x_max":214,"o":"m 44 1219 l 214 1029 l 136 1029 l 46 1132 l -42 1029 l -117 1029 l 44 1219 m 0 972 l 97 972 l 97 0 l 0 0 l 0 972 z "},"ï":{"ha":235,"x_min":-90,"x_max":196,"o":"m -35 1181 q 18 1144 4 1181 q 22 1124 21 1133 q -15 1072 22 1086 q -35 1068 -25 1068 q -86 1104 -74 1068 q -90 1124 -90 1115 q -54 1176 -90 1163 q -35 1181 -43 1181 m 139 1181 q 192 1144 178 1181 q 196 1124 194 1133 q 158 1072 196 1086 q 139 1068 149 1068 q 88 1104 100 1068 q 83 1124 83 1115 q 119 1176 83 1163 q 139 1181 131 1181 m 0 972 l 97 972 l 97 0 l 0 0 l 0 972 z "},"ý":{"ha":826,"x_min":0,"x_max":689,"o":"m 460 1219 l 535 1219 l 374 1029 l 297 1029 l 460 1219 m 0 972 l 107 972 l 344 465 l 581 972 l 688 972 l 397 351 l 393 340 l 393 0 l 296 0 l 296 340 l 290 351 l 0 972 z "},"ÿ":{"ha":826,"x_min":0,"x_max":689,"o":"m 257 1181 q 310 1144 296 1181 q 313 1124 313 1133 q 276 1072 313 1086 q 257 1068 267 1068 q 204 1104 218 1068 q 201 1124 201 1115 q 238 1176 201 1163 q 257 1181 247 1181 m 431 1181 q 483 1144 469 1181 q 486 1124 486 1133 q 450 1072 486 1086 q 431 1068 440 1068 q 378 1104 392 1068 q 375 1124 375 1115 q 411 1176 375 1163 q 431 1181 421 1181 m 0 972 l 107 972 l 344 465 l 581 972 l 688 972 l 397 351 l 393 340 l 393 0 l 296 0 l 296 340 l 290 351 l 0 972 z "},"ç":{"ha":965,"x_min":0,"x_max":828,"o":"m 481 974 q 811 844 671 975 q 828 829 821 838 l 758 761 q 481 876 643 878 q 338 847 406 875 q 133 651 197 789 q 97 486 97 572 q 213 208 97 322 q 336 125 267 154 q 640 129 489 61 q 757 210 707 160 l 826 142 q 508 -1 693 10 l 508 -15 q 593 -71 565 -17 q 606 -112 604 -92 q 561 -210 611 -175 q 524 -226 544 -222 q 429 -187 467 -237 q 410 -149 415 -169 l 467 -135 q 506 -169 475 -169 q 513 -169 510 -169 q 547 -132 540 -164 q 547 -118 547 -124 q 515 -75 544 -83 q 507 -74 510 -74 l 450 -74 l 450 0 q 299 36 371 6 q 53 267 133 106 q 0 488 0 371 q 132 821 0 681 q 300 938 204 897 q 475 974 385 971 q 481 974 478 974 z "},"":{"ha":6975,"x_min":0,"x_max":6838,"o":"m 4076 972 q 4404 839 4264 972 q 4414 829 4410 833 l 4344 761 q 4069 875 4231 876 q 3844 761 3901 875 q 3825 675 3825 721 q 3888 531 3825 579 q 3896 524 3892 526 q 4079 456 3956 483 q 4136 444 4099 451 q 4290 401 4243 421 q 4375 344 4343 381 q 4413 243 4413 303 q 4310 68 4413 139 q 4300 63 4304 65 q 4063 1 4200 1 q 3738 128 3876 -1 q 3721 144 3728 136 l 3789 213 q 4063 99 3906 97 q 4249 144 4174 99 q 4315 243 4315 189 q 4301 282 4315 268 q 4253 311 4286 300 q 4065 358 4222 325 q 4058 360 4061 360 q 3840 444 3911 394 q 3728 675 3728 528 q 3824 885 3728 799 q 4069 972 3921 972 q 4076 972 4074 972 m 1063 972 l 1133 972 l 1361 972 q 1619 861 1514 972 q 1714 625 1714 760 q 1600 371 1714 474 q 1361 279 1497 279 l 1160 279 l 1160 1 l 1063 1 l 1063 972 m 2335 972 q 2669 836 2529 972 q 2815 508 2807 700 q 2817 486 2817 496 q 2682 150 2817 290 q 2356 1 2549 10 q 2335 1 2344 1 q 2000 138 2140 1 q 1854 465 1863 272 q 1853 486 1854 476 q 1988 822 1853 682 q 2314 972 2122 964 q 2335 972 2325 972 m 2957 972 l 3028 972 l 3254 972 q 3514 861 3408 972 q 3608 625 3608 760 q 3493 369 3608 474 q 3357 293 3433 317 l 3608 1 l 3481 1 l 3242 279 l 3053 279 l 3053 1 l 2957 1 l 2957 972 m 6281 972 l 6378 972 l 6835 972 l 6835 875 l 6378 875 l 6378 674 l 6764 674 l 6764 576 l 6378 576 l 6378 375 l 6836 375 l 6836 279 l 6378 279 l 6281 279 l 6281 971 l 6281 972 m 4985 971 q 5314 838 5175 971 q 5324 828 5319 832 l 5254 760 q 4982 875 5142 875 q 4833 844 4904 874 q 4631 647 4694 786 q 4596 485 4596 569 q 4711 206 4594 321 q 4832 125 4765 154 q 5136 128 4985 60 q 5254 210 5203 158 l 5324 140 q 4996 -3 5188 4 q 4794 35 4892 -6 q 4550 265 4629 104 q 4499 485 4497 369 q 4629 818 4499 678 q 4796 935 4701 894 q 4971 971 4885 971 l 4978 971 q 4985 971 4982 971 m 0 971 l 97 971 l 97 143 q 411 117 231 178 q 485 92 424 113 q 682 51 614 47 q 865 122 771 57 l 921 43 q 531 -25 743 -79 q 453 0 494 -15 q 268 56 313 49 q 68 29 165 71 l 0 0 l 0 971 m 575 971 q 582 971 579 971 q 660 961 615 971 q 875 801 801 926 q 919 583 933 699 l 899 585 l 899 582 l 336 582 q 458 408 356 467 q 467 403 463 406 q 682 399 574 347 q 782 485 744 429 l 840 400 q 599 279 746 289 q 421 317 504 274 q 251 521 294 383 q 257 746 215 635 q 432 938 306 878 q 575 971 501 969 m 5463 971 l 5560 971 l 5560 417 q 5565 414 5561 417 q 5571 411 5569 413 q 5808 321 5731 335 q 6018 365 5922 304 l 6018 971 l 6114 971 l 6114 0 l 6018 0 l 6018 257 q 5793 226 5907 206 q 5560 308 5704 240 l 5560 0 l 5463 0 l 5463 354 q 5283 408 5360 400 q 5022 335 5149 424 l 4967 414 q 5236 508 5099 506 q 5294 506 5257 508 q 5463 460 5369 497 l 5463 971 m 1160 875 l 1160 375 l 1361 375 q 1560 468 1483 375 q 1617 625 1617 538 q 1525 818 1617 743 q 1361 875 1453 875 l 1160 875 m 2335 875 q 2056 754 2169 875 q 1950 486 1951 642 q 2069 204 1950 318 q 2335 99 2182 99 q 2614 218 2501 99 q 2719 486 2718 332 q 2600 768 2719 654 q 2335 875 2488 875 m 3053 875 l 3053 375 l 3158 375 l 3265 375 q 3460 474 3386 381 q 3511 625 3511 540 q 3418 818 3511 743 q 3254 875 3347 875 l 3053 875 m 575 874 q 388 782 460 874 q 349 711 363 749 q 339 679 343 700 l 819 679 q 697 843 794 789 q 638 867 668 858 q 581 874 607 874 q 575 874 578 874 m 6281 97 l 6835 97 l 6835 0 l 6281 0 l 6281 97 z "}}}
